<svg xmlns="http://www.w3.org/2000/svg" viewBox="0 0 64 64" width="200" height="200" role="img" aria-label="KoNotes">
  <title>KoNotes</title>
  <defs>
    <linearGradient id="kn-bg" x1="0" y1="0" x2="64" y2="64" gradientUnits="userSpaceOnUse">
      <stop offset="0%" stop-color="#1D4ED8"/>
      <stop offset="100%" stop-color="#4338CA"/>
    </linearGradient>
    <linearGradient id="kn-hl" x1="0" y1="0" x2="1" y2="0">
      <stop offset="0%" stop-color="#38BDF8"/>
      <stop offset="100%" stop-color="#818CF8"/>
    </linearGradient>
    <linearGradient id="kn-pr" x1="0" y1="0" x2="1" y2="0">
      <stop offset="0%" stop-color="rgba(255,255,255,0.27)"/>
      <stop offset="100%" stop-color="rgba(255,255,255,0.15)"/>
    </linearGradient>
  </defs>
  <!-- Background -->
  <rect width="64" height="64" rx="14" fill="url(#kn-bg)"/>
  <!-- Left page -->
  <rect x="7" y="11" width="22" height="42" rx="3" fill="rgba(255,255,255,0.16)" stroke="rgba(255,255,255,0.20)" stroke-width="0.5"/>
  <!-- Spine -->
  <rect x="29" y="11" width="6" height="42" rx="2" fill="rgba(255,255,255,0.32)"/>
  <!-- Right page -->
  <rect x="35" y="11" width="22" height="42" rx="3" fill="url(#kn-pr)" stroke="rgba(255,255,255,0.22)" stroke-width="0.5"/>
  <!-- Left page: text lines -->
  <line x1="11" y1="21" x2="27" y2="21" stroke="rgba(255,255,255,0.55)" stroke-width="1.6" stroke-linecap="round"/>
  <line x1="11" y1="27" x2="26" y2="27" stroke="rgba(255,255,255,0.30)" stroke-width="1.3" stroke-linecap="round"/>
  <line x1="11" y1="33" x2="22" y2="33" stroke="rgba(255,255,255,0.18)" stroke-width="1.3" stroke-linecap="round"/>
  <!-- Right page: annotation highlight -->
  <rect x="37" y="21" width="16" height="6" rx="3" fill="url(#kn-hl)" opacity="0.68"/>
  <line x1="38" y1="24" x2="52" y2="24" stroke="white" stroke-width="1.6" stroke-linecap="round"/>
  <!-- Right page: other text lines -->
  <line x1="38" y1="31" x2="51" y2="31" stroke="rgba(255,255,255,0.32)" stroke-width="1.3" stroke-linecap="round"/>
  <line x1="38" y1="37" x2="47" y2="37" stroke="rgba(255,255,255,0.18)" stroke-width="1.3" stroke-linecap="round"/>
</svg>
